<?xml version="1.0" standalone="no"?>
<!DOCTYPE svg PUBLIC "-//W3C//DTD SVG 20010904//EN"
 "http://www.w3.org/TR/2001/REC-SVG-20010904/DTD/svg10.dtd">
<svg version="1.0" xmlns="http://www.w3.org/2000/svg"
 width="1570.000000pt" height="1570.000000pt" viewBox="0 0 1570.000000 1570.000000"
 preserveAspectRatio="xMidYMid meet">
<metadata>
Created by potrace 1.14, written by Peter Selinger 2001-2017
</metadata>
<g transform="translate(0.000000,1570.000000) scale(0.100000,-0.100000)"
fill="#000000" stroke="none">
<path d="M8400 14664 c-40 -43 -98 -75 -174 -96 -39 -10 -96 -30 -126 -43 -30
-14 -109 -45 -175 -71 -114 -44 -128 -47 -265 -56 -275 -18 -375 -6 -465 58
-17 12 -64 34 -105 48 -79 29 -195 97 -204 122 -9 24 -58 16 -91 -14 -16 -16
-84 -59 -150 -96 -66 -38 -163 -96 -215 -130 -126 -82 -182 -117 -262 -166
-37 -22 -93 -63 -124 -90 -31 -28 -100 -77 -153 -110 -53 -33 -117 -74 -142
-90 -25 -16 -71 -41 -102 -55 -54 -23 -57 -24 -66 -6 -9 15 -70 232 -88 308
-8 34 -28 47 -52 33 -12 -6 -21 -15 -21 -20 0 -5 -13 -28 -28 -52 -16 -24 -36
-63 -44 -88 -46 -132 -67 -181 -95 -216 -31 -40 -106 -188 -140 -279 -17 -44
-23 -51 -58 -60 -22 -5 -152 -10 -288 -10 l-249 0 -50 -62 c-43 -54 -54 -78
-80 -170 -28 -103 -30 -121 -39 -412 l-9 -304 -53 -51 c-28 -28 -70 -62 -92
-76 -22 -13 -73 -51 -113 -85 -40 -33 -94 -76 -121 -95 -46 -33 -128 -122
-179 -195 -22 -31 -24 -44 -25 -187 -2 -115 2 -169 15 -218 19 -73 58 -170 77
-194 25 -29 -1 -142 -46 -202 -13 -17 -23 -38 -23 -46 0 -9 -7 -21 -15 -28 -8
-7 -17 -27 -21 -45 -3 -19 -15 -41 -25 -51 -10 -9 -19 -26 -19 -37 0 -11 -8
-34 -19 -51 -10 -17 -22 -49 -25 -71 -10 -58 -44 -163 -67 -213 -12 -24 -27
-89 -35 -150 -8 -59 -20 -116 -26 -127 -34 -60 -52 -375 -23 -425 8 -14 14
-37 15 -52 0 -15 5 -30 10 -33 6 -3 10 -27 10 -53 1 -53 20 -194 44 -325 24
-127 26 -497 3 -534 -4 -6 -12 -55 -17 -110 -24 -230 -25 -238 -59 -290 l-33
-50 -78 -6 c-57 -5 -91 -13 -126 -33 -54 -29 -104 -72 -104 -89 0 -5 -9 -26
-19 -46 -20 -37 -42 -157 -41 -225 0 -98 -12 -280 -21 -290 -11 -14 -11 -235
1 -249 4 -5 15 -66 25 -135 9 -69 23 -152 32 -185 8 -33 17 -70 20 -83 3 -12
9 -25 14 -28 5 -3 9 -22 9 -43 0 -20 4 -41 8 -47 21 -23 56 -125 68 -194 7
-41 15 -86 18 -100 2 -14 10 -58 17 -98 7 -40 16 -75 21 -78 4 -3 8 -23 8 -44
0 -21 6 -45 13 -52 8 -8 21 -71 31 -153 10 -77 22 -156 27 -175 16 -63 27
-173 28 -275 1 -112 15 -213 31 -229 5 -5 10 -16 10 -24 0 -16 30 -84 41 -92
3 -3 12 -22 20 -44 21 -57 82 -102 197 -141 34 -12 87 -25 118 -29 31 -3 65
-11 75 -17 11 -5 79 -11 152 -13 l132 -3 14 -49 c7 -27 23 -60 35 -74 39 -47
101 -212 122 -327 44 -244 85 -399 143 -543 26 -64 41 -108 56 -160 7 -25 20
-61 28 -80 8 -19 21 -55 28 -80 7 -25 16 -50 21 -56 4 -6 16 -35 27 -65 25
-74 55 -135 94 -191 85 -124 207 -342 207 -370 0 -9 13 -33 30 -51 16 -19 30
-39 30 -44 0 -6 11 -23 25 -39 14 -16 25 -34 25 -40 0 -6 12 -21 26 -35 14
-13 39 -49 55 -81 15 -31 32 -58 36 -60 12 -4 73 -90 73 -101 0 -5 15 -30 34
-56 19 -25 40 -60 47 -76 19 -42 116 -180 162 -229 20 -23 37 -46 37 -52 0 -6
14 -27 31 -45 16 -19 46 -59 66 -89 20 -30 55 -77 77 -105 23 -27 47 -62 54
-77 6 -16 16 -28 22 -28 5 0 18 -17 29 -38 10 -20 31 -48 46 -62 15 -14 31
-35 36 -47 4 -12 21 -30 36 -39 15 -10 49 -37 75 -61 26 -24 53 -43 60 -43 7
0 31 -19 54 -43 60 -61 104 -93 181 -134 37 -20 70 -40 72 -45 4 -11 126 -68
145 -68 7 0 56 -23 109 -50 53 -28 107 -50 121 -50 13 0 36 -7 52 -15 15 -8
59 -17 96 -21 38 -4 71 -11 74 -15 8 -14 531 -11 557 3 12 6 72 13 132 14 61
2 133 6 160 9 28 3 187 10 355 15 334 11 366 13 425 28 22 6 81 16 130 23 58
7 99 18 114 30 13 11 28 19 33 19 24 0 242 107 310 152 15 10 38 18 51 18 28
0 57 28 57 56 0 11 21 40 46 64 45 44 93 109 143 192 13 23 39 56 58 75 18 19
33 41 33 48 0 7 24 40 53 74 94 110 107 128 155 223 26 51 53 102 59 113 7 11
20 38 29 60 10 22 28 54 41 71 12 17 45 77 73 135 28 57 55 111 59 119 5 9 12
31 16 50 4 19 18 57 32 84 28 58 58 145 68 198 4 20 18 51 31 69 13 18 24 37
24 43 0 9 63 147 81 176 13 21 22 42 64 139 19 46 44 91 54 100 10 9 33 52 51
96 17 44 39 91 48 105 20 31 61 112 62 122 0 4 11 31 24 60 13 29 38 96 56
148 17 52 45 120 61 151 16 32 33 75 38 96 5 21 17 67 26 103 9 36 29 90 44
120 16 30 36 89 46 130 10 41 36 114 57 161 21 48 38 93 38 101 0 8 4 18 8 24
5 5 15 29 22 54 8 25 26 64 39 87 27 45 43 51 176 69 28 3 61 13 74 21 19 12
41 14 108 9 49 -4 89 -3 96 2 7 5 28 12 47 15 58 9 107 24 125 38 65 55 125
135 125 167 0 11 6 25 14 31 7 6 20 30 28 54 8 23 21 58 28 77 11 27 14 154
17 590 3 646 18 954 51 1016 5 10 15 52 21 92 6 40 15 80 20 90 9 16 17 45 57
187 10 33 22 66 27 73 5 7 12 74 15 150 4 123 2 145 -17 198 -11 33 -21 71
-21 83 0 24 -51 121 -73 139 -7 6 -34 18 -61 27 -49 17 -87 16 -161 -3 -29 -8
-43 -8 -54 1 -14 12 -52 17 -123 17 l-38 0 6 78 c3 42 10 104 16 137 5 33 13
87 18 120 4 33 14 80 20 105 6 25 18 88 25 140 8 52 22 145 31 205 8 61 21
142 27 180 7 45 12 279 13 655 1 322 6 725 10 895 9 294 10 312 32 352 44 83
19 213 -41 213 -26 0 -54 22 -90 71 -14 20 -39 50 -54 67 -15 16 -46 56 -68
88 -22 32 -48 66 -58 77 -10 10 -17 20 -15 21 1 2 46 24 99 49 52 25 104 56
115 68 10 11 35 29 55 40 20 10 39 25 42 34 10 24 -3 45 -27 45 -24 0 -101 47
-131 80 -11 12 -85 42 -189 75 -175 57 -268 94 -275 108 -2 5 -23 17 -47 28
-39 16 -43 21 -33 36 11 18 71 56 162 103 26 14 77 54 113 91 54 55 66 73 71
108 6 47 -10 72 -62 97 -73 34 -155 95 -155 116 0 10 68 72 134 121 65 49 76
64 76 102 0 38 -16 55 -50 55 -15 0 -124 36 -244 80 -119 44 -245 87 -279 95
-35 8 -83 22 -108 31 -24 9 -69 22 -99 29 -108 26 -238 76 -289 112 -11 8 29
71 67 107 145 133 185 190 150 212 -7 4 -170 7 -363 5 -386 -3 -522 6 -660 44
-114 32 -218 63 -274 82 l-43 16 6 51 c10 96 22 143 44 173 25 35 28 58 10 70
-7 4 -184 6 -393 4 -360 -2 -383 -1 -445 18 -36 11 -73 21 -82 21 -49 0 1 98
92 180 51 46 70 70 68 84 -4 31 -40 31 -68 0z m-1570 -98 c0 -2 -8 -10 -17
-17 -16 -13 -17 -12 -4 4 13 16 21 21 21 13z m1397 -173 c-3 -10 -5 -2 -5 17
0 19 2 27 5 18 2 -10 2 -26 0 -35z m-470 -49 c-3 -3 -12 -4 -19 -1 -8 3 -5 6
6 6 11 1 17 -2 13 -5z m-209 -21 c-10 -2 -28 -2 -40 0 -13 2 -5 4 17 4 22 1
32 -1 23 -4z m1595 -20 c-7 -2 -19 -2 -25 0 -7 3 -2 5 12 5 14 0 19 -2 13 -5z
m-630 -10 c-13 -2 -33 -2 -45 0 -13 2 -3 4 22 4 25 0 35 -2 23 -4z m640 -300
c-7 -2 -19 -2 -25 0 -7 3 -2 5 12 5 14 0 19 -2 13 -5z m244 -69 c-3 -3 -12 -4
-19 -1 -8 3 -5 6 6 6 11 1 17 -2 13 -5z m300 -50 c-3 -3 -12 -4 -19 -1 -8 3
-5 6 6 6 11 1 17 -2 13 -5z m733 -13 c0 -6 -5 -13 -12 -17 -6 -4 -8 -3 -4 4 3
5 0 13 -6 15 -8 3 -6 6 5 6 9 1 17 -3 17 -8z m-4833 -87 c-3 -3 -12 -4 -19 -1
-8 3 -5 6 6 6 11 1 17 -2 13 -5z m2327 -73 c3 -4 -6 -6 -19 -3 -14 2 -25 6
-25 8 0 8 39 4 44 -5z m-1276 -158 c-10 -2 -26 -2 -35 0 -10 3 -2 5 17 5 19 0
27 -2 18 -5z m159 -65 c-3 -8 -6 -5 -6 6 -1 11 2 17 5 13 3 -3 4 -12 1 -19z
m2506 -35 c-18 -2 -48 -2 -65 0 -18 2 -4 4 32 4 36 0 50 -2 33 -4z m-256 -19
c-3 -3 -12 -4 -19 -1 -8 3 -5 6 6 6 11 1 17 -2 13 -5z m-3970 -10 c-3 -3 -12
-4 -19 -1 -8 3 -5 6 6 6 11 1 17 -2 13 -5z m3830 0 c-3 -3 -12 -4 -19 -1 -8 3
-5 6 6 6 11 1 17 -2 13 -5z m-4144 -11 c-18 -2 -48 -2 -65 0 -18 2 -4 4 32 4
36 0 50 -2 33 -4z m2240 0 c-7 -2 -19 -2 -25 0 -7 3 -2 5 12 5 14 0 19 -2 13
-5z m2100 -20 c-7 -2 -19 -2 -25 0 -7 3 -2 5 12 5 14 0 19 -2 13 -5z m-140
-10 c-7 -2 -19 -2 -25 0 -7 3 -2 5 12 5 14 0 19 -2 13 -5z m-815 -70 c-10 -2
-26 -2 -35 0 -10 3 -2 5 17 5 19 0 27 -2 18 -5z m-11 -49 c-3 -3 -12 -4 -19
-1 -8 3 -5 6 6 6 11 1 17 -2 13 -5z m-3720 -136 c-3 -7 -5 -2 -5 12 0 14 2 19
5 13 2 -7 2 -19 0 -25z m1423 9 c0 -2 -10 -12 -22 -23 l-23 -19 19 23 c18 21
26 27 26 19z m4168 -54 c-26 -2 -71 -2 -100 0 -29 2 -8 3 47 3 55 0 79 -1 53
-3z m290 0 c-10 -2 -26 -2 -35 0 -10 3 -2 5 17 5 19 0 27 -2 18 -5z m-5 -50
c3 -5 -43 -7 -101 -5 -190 4 -211 8 -55 10 83 1 154 -1 156 -5z m-595 -10
c-21 -2 -57 -2 -80 0 -24 2 -7 4 37 4 44 0 63 -2 43 -4z m69 1 c-3 -3 -12 -4
-19 -1 -8 3 -5 6 6 6 11 1 17 -2 13 -5z m1363 -119 c19 -19 32 -35 29 -35 -3
0 -20 16 -39 35 -19 19 -32 35 -29 35 3 0 20 -16 39 -35z m-5470 -19 c0 -2 -8
-10 -17 -17 -16 -13 -17 -12 -4 4 13 16 21 21 21 13z m-1253 -143 c-2 -16 -4
-3 -4 27 0 30 2 43 4 28 2 -16 2 -40 0 -55z m3450 21 c-3 -3 -12 -4 -19 -1 -8
3 -5 6 6 6 11 1 17 -2 13 -5z m411 -1 c-10 -2 -26 -2 -35 0 -10 3 -2 5 17 5
19 0 27 -2 18 -5z m-2718 -7 c0 -2 -8 -10 -17 -17 -16 -13 -17 -12 -4 4 13 16
21 21 21 13z m2043 -3 c-29 -2 -77 -2 -105 0 -29 2 -6 3 52 3 58 0 81 -1 53
-3z m-2163 -17 c0 -2 -8 -10 -17 -17 -16 -13 -17 -12 -4 4 13 16 21 21 21 13z
m2397 -22 c-3 -3 -12 -4 -19 -1 -8 3 -5 6 6 6 11 1 17 -2 13 -5z m-2610 -26
c-3 -8 -6 -5 -6 6 -1 11 2 17 5 13 3 -3 4 -12 1 -19z m2376 15 c-13 -2 -35 -2
-50 0 -16 2 -5 4 22 4 28 0 40 -2 28 -4z m1294 -40 c-3 -10 -5 -4 -5 12 0 17
2 24 5 18 2 -7 2 -21 0 -30z m-2280 -9 c-3 -3 -12 -4 -19 -1 -8 3 -5 6 6 6 11
1 17 -2 13 -5z m-500 -71 c-3 -10 -5 -4 -5 12 0 17 2 24 5 18 2 -7 2 -21 0
-30z m-787 14 c0 -2 -12 -14 -27 -28 l-28 -24 24 28 c23 25 31 32 31 24z
m1673 -44 c-18 -2 -48 -2 -65 0 -18 2 -4 4 32 4 36 0 50 -2 33 -4z m1900 -10
c-7 -2 -19 -2 -25 0 -7 3 -2 5 12 5 14 0 19 -2 13 -5z m260 -50 c-35 -2 -91
-2 -125 0 -35 2 -7 3 62 3 69 0 97 -1 63 -3z m-4803 -27 c0 -2 -8 -10 -17 -17
-16 -13 -17 -12 -4 4 13 16 21 21 21 13z m6093 -3 c-7 -2 -19 -2 -25 0 -7 3
-2 5 12 5 14 0 19 -2 13 -5z m-5693 -26 c0 -2 -12 -14 -27 -28 l-28 -24 24 28
c23 25 31 32 31 24z m3520 -20 c0 -2 -12 -14 -27 -28 l-28 -24 24 28 c23 25
31 32 31 24z m2367 -3 c-3 -3 -12 -4 -19 -1 -8 3 -5 6 6 6 11 1 17 -2 13 -5z
m-1086 -21 c13 -16 12 -17 -3 -4 -17 13 -22 21 -14 21 2 0 10 -8 17 -17z
m-4771 4 c0 -2 -12 -14 -27 -28 l-28 -24 24 28 c23 25 31 32 31 24z m1347 -54
c-3 -10 -5 -4 -5 12 0 17 2 24 5 18 2 -7 2 -21 0 -30z m-1517 4 c0 -2 -15 -16
-32 -33 l-33 -29 29 33 c28 30 36 37 36 29z m5175 -107 c10 -11 16 -20 13 -20
-3 0 -13 9 -23 20 -10 11 -16 20 -13 20 3 0 13 -9 23 -20z m-5205 -3 c0 -2
-10 -12 -22 -23 l-23 -19 19 23 c18 21 26 27 26 19z m-130 -30 c0 -2 -10 -12
-22 -23 l-23 -19 19 23 c18 21 26 27 26 19z m5410 -32 c13 -14 21 -25 18 -25
-2 0 -15 11 -28 25 -13 14 -21 25 -18 25 2 0 15 -11 28 -25z m-3247 -22 c-13
-2 -33 -2 -45 0 -13 2 -3 4 22 4 25 0 35 -2 23 -4z m914 -9 c-3 -3 -12 -4 -19
-1 -8 3 -5 6 6 6 11 1 17 -2 13 -5z m280 -10 c-3 -3 -12 -4 -19 -1 -8 3 -5 6
6 6 11 1 17 -2 13 -5z m-984 -11 c-13 -2 -35 -2 -50 0 -16 2 -5 4 22 4 28 0
40 -2 28 -4z m550 0 c-7 -2 -19 -2 -25 0 -7 3 -2 5 12 5 14 0 19 -2 13 -5z
m-780 -30 c-18 -2 -48 -2 -65 0 -18 2 -4 4 32 4 36 0 50 -2 33 -4z m1055 0
c-10 -2 -28 -2 -40 0 -13 2 -5 4 17 4 22 1 32 -1 23 -4z m3952 -7 c0 -2 -8
-10 -17 -17 -16 -13 -17 -12 -4 4 13 16 21 21 21 13z m-4297 -43 c-7 -2 -21
-2 -30 0 -10 3 -4 5 12 5 17 0 24 -2 18 -5z m-260 -10 c-29 -2 -77 -2 -105 0
-29 2 -6 3 52 3 58 0 81 -1 53 -3z m145 0 c-15 -2 -42 -2 -60 0 -18 2 -6 4 27
4 33 0 48 -2 33 -4z m1986 -159 c27 -36 88 -102 135 -148 47 -45 151 -146 231
-223 80 -77 175 -166 213 -198 37 -31 92 -89 122 -128 59 -79 314 -342 384
-398 l45 -36 -22 -184 c-35 -284 -39 -393 -37 -824 3 -384 15 -628 35 -680 7
-19 6 -25 -5 -25 -7 0 -17 5 -20 10 -4 6 -10 8 -14 6 -4 -3 -23 3 -42 13 -19
10 -50 22 -69 26 -19 4 -39 10 -43 12 -15 9 -107 9 -107 0 0 -5 -9 -5 -20 -2
-12 4 -26 2 -33 -3 -11 -9 -34 -13 -154 -28 -27 -3 -86 -11 -133 -19 -47 -7
-92 -13 -100 -14 -8 0 -37 -5 -65 -11 -27 -6 -54 -12 -60 -13 -5 -2 -14 -5
-20 -8 -5 -4 -38 -9 -72 -13 -34 -4 -94 -18 -132 -31 -54 -19 -92 -25 -158
-25 -49 -1 -108 -6 -133 -11 -25 -6 -58 -11 -75 -11 -105 2 -282 -55 -314
-100 -7 -11 -31 -38 -52 -61 -21 -23 -39 -47 -39 -53 0 -6 -9 -19 -20 -29 -11
-10 -18 -20 -16 -22 2 -2 -9 -30 -25 -61 -16 -31 -29 -67 -29 -79 0 -31 -24
-40 -105 -38 -38 1 -108 -4 -154 -12 -46 -7 -109 -13 -140 -12 -55 1 -56 1
-19 11 45 12 71 39 72 76 1 24 4 27 18 19 40 -26 65 44 28 78 -11 10 -20 31
-20 47 0 15 -4 28 -8 28 -5 0 -15 19 -21 43 -7 23 -17 47 -22 53 -25 31 -42
455 -19 469 6 4 8 11 4 16 -3 6 -1 22 5 37 19 46 29 151 17 168 -17 22 -43 8
-56 -30 -19 -59 -40 -187 -40 -248 0 -58 -1 -60 -17 -45 -30 26 -70 31 -99 13
l-25 -17 8 38 c15 73 9 114 -21 139 -33 29 -75 31 -109 4 l-26 -20 -6 42 c-4
24 -5 48 -4 53 6 18 -25 55 -46 55 -26 0 -50 -37 -36 -54 6 -8 13 -102 16
-230 6 -202 5 -220 -14 -272 -21 -55 -45 -97 -68 -122 -7 -7 -13 -19 -13 -27
0 -7 -11 -20 -25 -29 -14 -9 -23 -21 -20 -25 2 -5 -3 -15 -13 -22 -16 -13 -16
-12 -2 6 8 11 -2 5 -23 -14 -20 -19 -35 -37 -32 -39 2 -2 -5 -13 -16 -25 -28
-31 -23 -58 15 -89 55 -44 91 -38 147 22 34 37 53 50 74 50 22 0 26 -3 20 -17
-21 -54 -18 -82 13 -113 53 -53 107 -37 153 46 31 53 33 55 41 33 15 -40 59
-90 92 -104 36 -15 42 -13 -84 -35 -36 -7 -96 -18 -135 -26 -57 -12 -90 -13
-180 -4 -189 19 -281 23 -301 12 -11 -6 -55 -8 -106 -5 l-87 6 5 36 c3 20 14
56 25 80 10 24 19 52 19 63 0 10 15 60 33 111 70 192 68 204 -39 212 -38 3
-98 10 -134 16 -64 11 -321 8 -370 -4 -13 -4 -69 -11 -124 -17 -55 -6 -115
-14 -135 -20 -76 -19 -134 -23 -396 -27 -172 -2 -278 -7 -292 -14 -13 -7 -45
-9 -85 -5 -115 12 -242 11 -293 -3 -77 -20 -149 -43 -160 -51 -5 -5 -39 -16
-73 -26 -35 -9 -66 -23 -69 -30 -3 -8 -20 -23 -39 -35 -19 -11 -34 -26 -34
-33 0 -7 -11 -22 -25 -34 -28 -25 -32 -44 -11 -64 11 -12 51 -14 195 -12 100
2 185 5 189 8 5 3 39 8 77 11 38 4 76 10 84 15 9 4 120 8 246 9 127 0 249 5
272 11 42 10 367 7 413 -4 14 -3 34 -10 45 -15 56 -26 119 -43 153 -42 13 0
36 -6 53 -14 16 -9 53 -20 81 -25 53 -11 75 -18 157 -57 l46 -21 -40 -1 c-22
-1 -80 4 -130 10 -49 7 -112 13 -140 14 -27 2 -88 8 -135 14 -47 6 -111 11
-143 11 -53 0 -61 3 -85 31 -57 69 -142 75 -349 27 l-138 -33 -340 -1 c-187
-1 -396 -7 -465 -13 -69 -5 -178 -15 -243 -20 -105 -9 -218 -34 -355 -77 -24
-8 -64 -19 -89 -24 -42 -10 -115 -38 -155 -60 -14 -8 -18 -7 -18 4 0 8 -6 19
-14 23 -15 8 -66 79 -66 91 0 4 30 8 67 9 100 1 234 11 241 17 3 3 16 6 29 6
25 0 63 50 63 82 0 12 14 19 50 27 120 26 220 106 273 219 l32 67 6 240 c7
235 26 421 53 520 8 28 19 84 26 125 6 41 18 98 25 125 8 28 18 77 24 110 6
33 19 110 30 170 10 61 28 162 40 225 11 63 31 165 45 225 13 61 32 162 41
225 9 63 23 149 32 190 8 41 21 117 29 167 7 51 20 118 28 150 8 32 21 102 30
155 9 53 25 125 35 160 10 35 24 86 31 113 9 34 26 63 54 93 22 23 44 42 50
42 5 0 30 -20 56 -44 97 -91 271 -157 560 -215 30 -6 78 -16 105 -22 28 -5 79
-17 115 -24 36 -8 91 -14 123 -15 70 0 458 -36 547 -51 128 -21 417 -14 635
15 185 25 387 60 404 70 8 5 234 35 461 62 107 12 160 26 380 98 140 47 303
105 362 130 88 38 149 59 188 65 3 0 27 -29 54 -65z m-4194 43 c0 -2 -12 -14
-27 -28 l-28 -24 24 28 c23 25 31 32 31 24z m-783 -49 c-3 -7 -5 -2 -5 12 0
14 2 19 5 13 2 -7 2 -19 0 -25z m-380 -25 c-3 -10 -5 -2 -5 17 0 19 2 27 5 18
2 -10 2 -26 0 -35z m6990 -35 c-2 -13 -4 -3 -4 22 0 25 2 35 4 23 2 -13 2 -33
0 -45z m253 19 c0 -2 -10 -12 -22 -23 l-23 -19 19 23 c18 21 26 27 26 19z
m-7243 -69 c-3 -8 -6 -5 -6 6 -1 11 2 17 5 13 3 -3 4 -12 1 -19z m410 -15 c-3
-10 -5 -4 -5 12 0 17 2 24 5 18 2 -7 2 -21 0 -30z m0 -55 c-3 -7 -5 -2 -5 12
0 14 2 19 5 13 2 -7 2 -19 0 -25z m6134 -15 c13 -16 12 -17 -3 -4 -17 13 -22
21 -14 21 2 0 10 -8 17 -17z m-6194 -165 c-2 -18 -4 -6 -4 27 0 33 2 48 4 33
2 -15 2 -42 0 -60z m50 -80 c-2 -18 -4 -6 -4 27 0 33 2 48 4 33 2 -15 2 -42 0
-60z m-50 -10 c-3 -8 -6 -5 -6 6 -1 11 2 17 5 13 3 -3 4 -12 1 -19z m6604
-215 c13 -16 12 -17 -3 -4 -10 7 -18 15 -18 17 0 8 8 3 21 -13z m-6584 -25
c-3 -7 -5 -2 -5 12 0 14 2 19 5 13 2 -7 2 -19 0 -25z m-60 -40 c-2 -13 -4 -5
-4 17 -1 22 1 32 4 23 2 -10 2 -28 0 -40z m6674 -25 c13 -16 12 -17 -3 -4 -17
13 -22 21 -14 21 2 0 10 -8 17 -17z m436 -85 c-3 -7 -5 -2 -5 12 0 14 2 19 5
13 2 -7 2 -19 0 -25z m-7140 -115 c-3 -10 -5 -2 -5 17 0 19 2 27 5 18 2 -10 2
-26 0 -35z m70 -15 c-2 -13 -4 -5 -4 17 -1 22 1 32 4 23 2 -10 2 -28 0 -40z
m6700 -85 c-3 -10 -5 -2 -5 17 0 19 2 27 5 18 2 -10 2 -26 0 -35z m390 25 c-3
-8 -6 -5 -6 6 -1 11 2 17 5 13 3 -3 4 -12 1 -19z m-460 -35 c-3 -10 -5 -2 -5
17 0 19 2 27 5 18 2 -10 2 -26 0 -35z m420 -30 c-3 -10 -5 -2 -5 17 0 19 2 27
5 18 2 -10 2 -26 0 -35z m410 -55 c-3 -7 -5 -2 -5 12 0 14 2 19 5 13 2 -7 2
-19 0 -25z m-380 -145 c-2 -16 -4 -5 -4 22 0 28 2 40 4 28 2 -13 2 -35 0 -50z
m-370 -65 c-2 -18 -4 -6 -4 27 0 33 2 48 4 33 2 -15 2 -42 0 -60z m-6580 -50
c-3 -7 -5 -2 -5 12 0 14 2 19 5 13 2 -7 2 -19 0 -25z m6940 10 c-3 -8 -6 -5
-6 6 -1 11 2 17 5 13 3 -3 4 -12 1 -19z m380 -111 c-2 -23 -3 -1 -3 48 0 50 1
68 3 42 2 -26 2 -67 0 -90z m-7490 41 c-2 -13 -4 -5 -4 17 -1 22 1 32 4 23 2
-10 2 -28 0 -40z m7060 20 c-3 -8 -6 -5 -6 6 -1 11 2 17 5 13 3 -3 4 -12 1
-19z m-370 -586 c-1 -97 -2 -15 -2 183 0 198 1 278 2 177 2 -101 2 -263 0
-360z m-6560 376 c-2 -13 -4 -3 -4 22 0 25 2 35 4 23 2 -13 2 -33 0 -45z
m7370 -160 c-2 -35 -3 -7 -3 62 0 69 1 97 3 63 2 -35 2 -91 0 -125z m-7360
-185 c-2 -16 -4 -5 -4 22 0 28 2 40 4 28 2 -13 2 -35 0 -50z m-670 -60 c-3
-10 -5 -2 -5 17 0 19 2 27 5 18 2 -10 2 -26 0 -35z m7590 -70 c-3 -10 -5 -2
-5 17 0 19 2 27 5 18 2 -10 2 -26 0 -35z m440 -30 c-2 -16 -4 -5 -4 22 0 28 2
40 4 28 2 -13 2 -35 0 -50z m-8010 -50 c-3 -10 -5 -4 -5 12 0 17 2 24 5 18 2
-7 2 -21 0 -30z m8010 -35 c-2 -13 -4 -5 -4 17 -1 22 1 32 4 23 2 -10 2 -28 0
-40z m-7450 -115 c-2 -27 -3 -5 -3 47 0 52 1 74 3 48 2 -27 2 -69 0 -95z
m6719 99 c-10 -2 -22 0 -28 6 -6 6 0 7 19 4 21 -5 23 -7 9 -10z m-29 -109 c-3
-10 -5 -2 -5 17 0 19 2 27 5 18 2 -10 2 -26 0 -35z m740 -55 c-2 -18 -4 -6 -4
27 0 33 2 48 4 33 2 -15 2 -42 0 -60z m-340 -25 c-2 -16 -4 -3 -4 27 0 30 2
43 4 28 2 -16 2 -40 0 -55z m-7610 -40 c-2 -21 -4 -6 -4 32 0 39 2 55 4 38 2
-18 2 -50 0 -70z m7150 20 c-3 -10 -5 -4 -5 12 0 17 2 24 5 18 2 -7 2 -21 0
-30z m50 -90 c-3 -10 -5 -2 -5 17 0 19 2 27 5 18 2 -10 2 -26 0 -35z m-6620
-270 c-1 -49 -3 -9 -3 87 0 96 2 136 3 88 2 -49 2 -127 0 -175z m3340 145 c-2
-13 -4 -3 -4 22 0 25 2 35 4 23 2 -13 2 -33 0 -45z m3280 -85 c-2 -21 -4 -4
-4 37 0 41 2 58 4 38 2 -21 2 -55 0 -75z m710 75 c-3 -7 -5 -2 -5 12 0 14 2
19 5 13 2 -7 2 -19 0 -25z m-3990 -100 c-3 -8 -6 -5 -6 6 -1 11 2 17 5 13 3
-3 4 -12 1 -19z m2376 -45 c-7 -2 -21 -2 -30 0 -10 3 -4 5 12 5 17 0 24 -2 18
-5z m-6316 -65 c-3 -8 -6 -5 -6 6 -1 11 2 17 5 13 3 -3 4 -12 1 -19z m-10
-130 c-2 -18 -4 -6 -4 27 0 33 2 48 4 33 2 -15 2 -42 0 -60z m3230 6 c-3 -3
-12 -4 -19 -1 -8 3 -5 6 6 6 11 1 17 -2 13 -5z m56 -11 c-7 -2 -19 -2 -25 0
-7 3 -2 5 12 5 14 0 19 -2 13 -5z m797 -50 c0 -7 -7 -13 -15 -13 -15 0 -21 31
-8 43 8 8 23 -12 23 -30z m1783 30 c-7 -2 -19 -2 -25 0 -7 3 -2 5 12 5 14 0
19 -2 13 -5z m630 0 c-7 -2 -21 -2 -30 0 -10 3 -4 5 12 5 17 0 24 -2 18 -5z
m-776 -19 c-3 -3 -12 -4 -19 -1 -8 3 -5 6 6 6 11 1 17 -2 13 -5z m1057 -86
c19 -51 33 -94 31 -96 -2 -3 -62 -4 -132 -2 -70 1 -186 3 -258 5 -71 1 -202 5
-290 9 -117 5 -217 3 -370 -10 -115 -9 -235 -18 -265 -20 l-55 -4 39 21 c21
11 44 25 50 30 36 30 96 63 126 70 19 4 53 12 75 17 22 6 58 13 80 16 22 3 83
12 135 21 94 17 341 17 400 1 37 -10 233 -7 288 5 26 5 55 11 64 13 10 1 21 5
24 9 15 15 23 4 58 -85z m-1804 69 c0 -2 -10 -12 -22 -23 l-23 -19 19 23 c18
21 26 27 26 19z m687 -3 c-3 -3 -12 -4 -19 -1 -8 3 -5 6 6 6 11 1 17 -2 13 -5z
m-4084 -11 c-7 -2 -19 -2 -25 0 -7 3 -2 5 12 5 14 0 19 -2 13 -5z m275 0 c-15
-2 -42 -2 -60 0 -18 2 -6 4 27 4 33 0 48 -2 33 -4z m-1861 -25 c-3 -8 -6 -5
-6 6 -1 11 2 17 5 13 3 -3 4 -12 1 -19z m7308 -68 c10 -11 16 -20 13 -20 -3 0
-13 9 -23 20 -10 11 -16 20 -13 20 3 0 13 -9 23 -20z m-4732 -7 c-7 -2 -21 -2
-30 0 -10 3 -4 5 12 5 17 0 24 -2 18 -5z m64 -9 c-3 -3 -12 -4 -19 -1 -8 3 -5
6 6 6 11 1 17 -2 13 -5z m-1344 -31 c-13 -2 -33 -2 -45 0 -13 2 -3 4 22 4 25
0 35 -2 23 -4z m245 0 c-10 -2 -26 -2 -35 0 -10 3 -2 5 17 5 19 0 27 -2 18 -5z
m-1001 -45 c-3 -7 -5 -2 -5 12 0 14 2 19 5 13 2 -7 2 -19 0 -25z m6930 -14
c-3 -3 -12 -4 -19 -1 -8 3 -5 6 6 6 11 1 17 -2 13 -5z m-2624 -31 c-7 -2 -19
-2 -25 0 -7 3 -2 5 12 5 14 0 19 -2 13 -5z m2814 0 c-20 -2 -52 -2 -70 0 -17
2 0 4 38 4 39 0 53 -2 32 -4z m-805 -68 c-5 -29 -5 -29 -21 3 -10 19 -9 22 7
22 15 0 18 -5 14 -25z m-6967 -10 c65 -8 70 -13 84 -83 20 -98 30 -186 31
-282 2 -105 33 -210 68 -225 12 -5 22 -17 22 -27 0 -47 50 -84 100 -73 26 6
31 2 50 -35 11 -22 31 -46 44 -51 25 -12 36 -48 36 -125 0 -50 29 -90 73 -102
l31 -8 28 -139 c18 -89 39 -163 59 -203 17 -35 33 -78 36 -96 8 -50 51 -91
148 -138 110 -54 242 -92 395 -112 63 -8 151 -20 195 -27 44 -6 148 -15 230
-19 83 -5 238 -15 345 -22 107 -7 348 -13 535 -13 l340 0 70 29 c39 16 84 38
100 50 47 34 105 66 120 66 7 0 27 11 44 25 22 19 32 38 37 72 4 28 19 63 38
89 64 87 112 160 137 210 58 112 121 197 157 208 22 7 38 39 47 93 6 35 26
102 85 283 31 95 59 193 74 261 4 19 14 28 33 32 16 3 44 17 64 30 35 23 52
31 154 63 67 21 242 38 273 26 15 -6 51 -13 80 -16 42 -4 58 -11 74 -31 11
-14 37 -34 58 -45 21 -11 41 -28 44 -37 9 -32 44 -226 51 -283 4 -30 11 -59
15 -65 4 -5 15 -45 24 -88 9 -43 23 -88 31 -100 8 -12 15 -28 15 -37 0 -8 9
-31 19 -51 10 -19 26 -82 36 -139 9 -57 21 -111 28 -120 9 -12 9 -13 -2 -3 -7
6 -20 9 -27 6 -21 -8 -19 -59 11 -213 2 -8 6 -40 10 -70 3 -30 9 -68 12 -85
12 -73 15 -432 3 -499 -10 -57 -10 -70 1 -77 9 -5 19 -3 26 4 26 26 33 105 29
332 l-3 230 22 -80 c26 -93 60 -159 125 -235 65 -76 84 -114 69 -141 -14 -27
-6 -56 35 -125 26 -42 33 -64 29 -88 -2 -17 5 -68 16 -114 18 -74 18 -86 5
-117 -19 -47 -18 -97 6 -190 24 -93 25 -115 6 -115 -19 0 -58 -52 -85 -114
-22 -52 -83 -114 -143 -146 -20 -11 -49 -36 -64 -55 -14 -19 -29 -33 -33 -31
-14 8 -51 -15 -51 -32 0 -24 25 -46 43 -39 10 4 12 -3 9 -23 -5 -38 32 -107
71 -131 86 -53 137 -47 267 32 47 28 113 62 147 74 78 28 121 57 156 105 46
65 58 135 56 325 -2 145 1 176 16 210 17 38 17 49 2 215 -13 145 -22 195 -52
295 -40 129 -44 139 -125 287 -69 128 -168 232 -236 250 -48 13 -58 26 -98
123 l-17 40 35 -35 c123 -124 211 -166 414 -197 85 -12 192 -16 517 -17 439
-1 592 9 825 53 30 6 92 15 137 21 45 6 101 17 125 26 24 9 73 24 111 34 l67
18 0 -27 c0 -27 -26 -135 -105 -436 -69 -264 -152 -585 -276 -1075 -105 -410
-111 -439 -105 -506 l6 -71 -51 -84 c-472 -776 -619 -1046 -715 -1314 -63
-174 -90 -260 -123 -395 -36 -142 -46 -186 -82 -366 l-13 -62 -55 -5 c-36 -3
-90 -20 -150 -47 -87 -39 -98 -42 -155 -36 -86 9 -81 9 -186 -9 -106 -18 -160
-31 -205 -50 -16 -8 -59 -18 -95 -25 -36 -6 -81 -18 -100 -28 -19 -9 -64 -18
-100 -20 -60 -3 -69 -1 -116 30 -89 58 -146 138 -193 272 -22 65 -38 123 -34
130 4 6 8 48 8 93 1 66 5 88 21 107 10 14 47 59 82 101 48 58 62 82 60 103 -5
46 -36 54 -183 46 -71 -4 -211 -8 -309 -9 l-179 -1 -38 -33 c-37 -30 -39 -36
-39 -87 0 -64 28 -122 95 -194 28 -31 47 -64 60 -105 23 -75 21 -118 -5 -163
-12 -20 -19 -45 -16 -56 3 -12 0 -31 -7 -42 -7 -12 -26 -48 -44 -81 -37 -70
-45 -77 -100 -93 -37 -11 -53 -10 -149 15 -83 21 -117 25 -148 19 -23 -4 -84
-8 -136 -9 -52 0 -103 -4 -113 -9 -9 -4 -48 -7 -85 -4 -59 3 -76 9 -125 41
-31 21 -57 42 -57 48 0 5 -10 14 -22 19 -45 18 -203 120 -273 176 -56 44 -114
60 -162 46 -21 -5 -58 -13 -83 -17 -65 -9 -160 -45 -193 -73 -9 -8 -19 -13
-21 -11 -2 2 -28 58 -58 124 -40 88 -59 142 -67 200 -20 132 -74 388 -111 523
-11 40 -25 126 -30 190 -11 131 -32 237 -85 433 -20 74 -48 175 -61 224 -14
50 -35 110 -48 135 -12 25 -48 95 -79 155 -32 63 -82 141 -116 182 -33 39
-124 167 -202 285 -78 117 -153 230 -167 251 -14 22 -53 63 -87 92 -78 69
-125 155 -125 229 0 109 -48 409 -89 559 -16 56 -34 134 -40 172 -7 39 -22 88
-34 110 -71 126 -243 121 -309 -8 -18 -36 -20 -53 -15 -127 3 -48 19 -133 37
-195 32 -112 50 -199 70 -337 10 -70 9 -80 -9 -117 -34 -65 -26 -133 21 -203
10 -15 15 -29 11 -31 -15 -9 -148 -11 -178 -3 -134 36 -242 70 -264 84 -14 9
-26 16 -28 15 -14 -12 -34 4 -48 39 -9 24 -20 45 -23 48 -11 8 -32 49 -32 62
0 6 -12 40 -26 76 -14 35 -23 71 -20 79 3 8 2 23 -4 32 -5 10 -12 71 -14 135
-3 64 -9 122 -13 129 -10 16 -12 26 -23 152 -19 205 -28 263 -45 273 -7 4 -16
25 -20 47 -3 22 -11 63 -16 90 -5 28 -12 66 -15 85 -5 33 -4 32 19 -16 13 -28
36 -59 50 -70 14 -10 35 -41 46 -69 11 -27 24 -49 30 -48 6 2 8 -4 5 -12 -4
-8 -1 -15 5 -15 6 0 11 -5 11 -11 0 -5 9 -29 19 -52 15 -35 36 -97 57 -174 5
-17 43 -16 50 1 6 15 -23 110 -43 142 -13 20 -12 21 45 20 42 -1 67 5 95 22
44 25 47 26 47 11 0 -7 7 -17 15 -23 8 -6 23 -33 33 -61 19 -52 41 -67 68 -44
12 10 14 24 9 66 -6 47 -28 110 -44 123 -43 36 -53 148 -21 230 23 59 21 80
-9 80 -14 0 -21 -9 -26 -31 -4 -17 -9 -28 -12 -25 -18 17 -33 171 -33 332 0
165 -2 190 -26 270 -14 49 -29 93 -34 99 -5 6 -16 43 -25 82 -10 43 -32 97
-57 138 -33 55 -39 73 -34 100 4 21 14 35 26 38 13 3 17 11 13 26 -3 12 -9 21
-14 21 -5 0 -18 22 -30 49 -19 46 -59 96 -59 75 0 -5 -15 20 -32 56 -18 36
-36 67 -40 68 -5 2 -14 9 -21 16 -21 21 -85 38 -116 31 -28 -6 -121 -86 -121
-104 0 -5 7 -14 16 -22 14 -11 21 -7 55 30 22 23 43 40 48 36 5 -3 12 -1 16 5
11 19 115 -37 115 -62 0 -4 -10 -8 -22 -8 -75 0 -149 -48 -179 -115 -39 -88
-42 -129 -19 -280 12 -77 31 -176 42 -220 35 -141 48 -207 43 -215 -3 -5 -6
-60 -6 -124 -1 -64 -5 -113 -10 -110 -5 3 -9 14 -9 25 0 10 -4 19 -8 19 -9 0
-42 87 -42 110 0 8 -6 27 -13 41 -13 23 -25 77 -33 139 -1 14 -7 50 -13 80
-22 125 -33 249 -27 305 4 33 10 110 15 170 5 61 14 138 20 173 6 35 13 84 15
110 6 80 42 164 83 190 40 27 147 54 178 45 11 -3 29 -6 40 -8z m5666 -2 c13
-16 12 -17 -3 -4 -10 7 -18 15 -18 17 0 8 8 3 21 -13z m-476 -19 c-309 -162
-403 -282 -330 -424 18 -34 91 -100 111 -100 8 0 20 -13 25 -30 6 -16 17 -30
25 -30 7 0 30 -11 50 -25 31 -21 48 -25 113 -25 42 0 105 7 140 15 35 9 71 13
80 11 9 -3 39 -8 66 -10 28 -3 70 -12 95 -21 25 -9 60 -18 79 -21 18 -3 43 -8
55 -11 44 -11 243 -12 286 -1 25 6 52 11 60 13 8 1 33 7 55 13 22 6 56 13 75
16 19 3 45 8 56 10 32 7 129 49 132 58 2 4 7 8 12 8 5 0 35 17 67 38 32 21 66
42 77 45 13 5 17 14 14 31 -4 22 -3 23 26 15 17 -5 36 -16 42 -24 7 -9 34 -20
60 -24 27 -5 63 -14 81 -19 25 -8 35 -7 43 3 21 26 6 49 -40 65 -25 8 -47 18
-50 21 -6 8 -45 20 -73 23 -44 6 -87 18 -87 25 0 6 -60 30 -90 36 -3 0 -15 6
-27 13 -13 7 -23 10 -23 7 0 -3 -8 -1 -19 4 -16 9 -91 22 -131 22 -8 0 -35 4
-60 10 -65 13 -96 18 -163 24 -116 12 -103 24 21 19 76 -3 155 -13 205 -25 45
-11 98 -24 117 -29 19 -5 37 -9 40 -10 3 0 14 -3 25 -5 30 -7 86 -15 130 -20
22 -2 56 -6 75 -9 80 -14 187 -28 214 -29 34 -2 60 28 37 42 -12 8 -33 11
-146 26 -166 21 -281 38 -285 42 -3 3 74 3 170 1 206 -6 251 3 299 57 17 20
31 41 31 48 1 12 11 -16 78 -198 l36 -100 2 -225 c2 -275 10 -307 108 -405 34
-34 72 -68 86 -77 23 -15 24 -17 9 -34 -39 -45 -49 -82 -49 -182 0 -113 -2
-115 -90 -141 -25 -7 -61 -19 -80 -26 -19 -7 -84 -20 -145 -30 -60 -9 -130
-21 -155 -27 -25 -5 -90 -14 -145 -18 -55 -5 -138 -13 -185 -19 -48 -6 -259
-11 -485 -11 -436 0 -509 6 -658 56 -97 32 -178 94 -247 188 -92 125 -121 201
-145 381 -9 66 -18 131 -21 143 -7 36 -49 72 -82 72 -28 0 -30 3 -51 83 -28
107 -41 183 -48 282 -3 44 -11 114 -17 155 l-11 74 145 74 c157 80 299 130
370 131 l45 0 -30 -15z m3195 -54 c18 -8 48 -59 49 -82 1 -9 15 -42 32 -74 31
-56 31 -57 26 -168 -4 -84 -11 -127 -30 -175 -29 -75 -33 -69 -48 68 -13 119
-39 178 -91 206 -46 24 -47 31 -9 40 38 8 66 -7 68 -36 3 -30 17 -42 41 -35
13 4 18 14 17 29 -5 41 -10 51 -38 75 -23 20 -38 24 -83 23 -30 0 -64 -5 -74
-11 -35 -19 -43 -12 -36 28 20 122 20 122 73 122 17 0 35 4 38 10 4 6 14 5 28
-2 12 -6 29 -14 37 -18z m-6803 -31 c-96 -72 -86 -237 18 -296 57 -32 104 -29
283 21 169 47 392 100 398 93 2 -2 -15 -10 -38 -17 -24 -7 -66 -24 -93 -36
-28 -13 -73 -26 -100 -29 -75 -9 -103 -14 -184 -36 -41 -10 -85 -19 -97 -19
-13 0 -25 -4 -29 -9 -3 -6 -13 -10 -23 -10 -37 -1 -130 -18 -152 -28 -23 -10
-49 -13 -122 -14 -64 0 -68 -2 -74 -25 -4 -14 -2 -30 5 -37 10 -10 73 -11 136
0 17 2 42 6 56 8 14 1 36 8 48 15 25 13 44 17 114 25 28 3 54 8 59 11 10 6
112 33 115 30 1 -1 -23 -15 -55 -32 -31 -16 -59 -32 -62 -35 -3 -3 -41 -22
-85 -43 -110 -51 -110 -51 -113 -70 -5 -24 16 -46 43 -46 26 0 73 22 101 48
20 19 21 19 43 1 19 -16 120 -52 173 -63 7 -2 26 -8 43 -15 50 -21 137 -37
287 -53 74 -8 113 -8 160 1 35 7 88 14 118 16 30 2 83 6 117 10 35 4 64 5 66
3 2 -2 12 4 21 12 12 9 48 15 110 17 185 6 262 11 286 17 14 4 31 8 37 10 7 1
22 12 34 25 18 19 20 26 10 48 -7 14 -9 28 -6 31 11 11 17 -9 25 -80 7 -57 5
-76 -5 -88 -27 -30 -45 -91 -120 -395 -72 -295 -91 -417 -72 -456 6 -11 -1
-20 -25 -32 -18 -9 -58 -31 -88 -48 -100 -56 -163 -62 -540 -55 -184 3 -396
10 -470 16 -74 5 -211 14 -305 19 -93 6 -231 19 -305 31 -74 11 -162 25 -195
30 -78 12 -181 47 -275 93 -85 43 -113 66 -134 113 -73 159 -78 175 -106 369
-6 38 -7 91 -4 117 6 44 0 87 -31 208 -31 125 -41 253 -29 397 5 59 9 74 27
86 30 19 213 73 287 84 19 3 52 16 75 28 33 19 67 24 210 34 94 7 222 13 285
14 63 2 129 4 145 5 l30 1 -28 -20z m1059 -24 c-25 -19 -37 -19 -30 0 4 8 16
15 28 15 21 -1 21 -1 2 -15z m854 -79 c25 -8 57 -16 71 -16 20 0 30 -8 39 -30
16 -38 9 -144 -15 -225 -9 -33 -26 -91 -37 -130 -10 -38 -23 -82 -28 -97 -6
-16 -15 -43 -21 -60 -6 -18 -24 -61 -40 -96 -30 -64 -38 -129 -18 -149 9 -9 7
-19 -7 -41 -11 -16 -40 -65 -66 -108 -75 -126 -110 -184 -113 -184 -5 0 106
435 125 491 10 31 16 65 13 77 -3 12 4 41 16 65 26 54 26 72 0 159 -20 70 -20
70 -1 92 70 76 70 180 0 253 l-30 31 33 -8 c19 -4 54 -15 79 -24z m2333 -23
c-7 -2 -21 -2 -30 0 -10 3 -4 5 12 5 17 0 24 -2 18 -5z m-3299 -29 c11 -4 16
-19 16 -44 0 -32 4 -39 23 -43 12 -2 -44 -5 -125 -6 -82 0 -148 1 -148 4 0 7
161 77 217 94 1 1 8 -2 17 -5z m3427 -53 c20 -16 22 -23 13 -38 -17 -27 -58
-24 -62 5 -4 28 4 52 17 52 5 0 19 -9 32 -19z m-356 -18 c-14 -36 -17 -119 -6
-159 6 -22 24 -61 41 -85 28 -41 28 -44 9 -47 -22 -4 -93 18 -182 55 -58 24
-59 24 -120 7 -78 -22 -138 -28 -182 -20 -40 8 -45 21 -13 32 28 8 89 47 143
90 60 48 163 101 228 118 33 8 62 17 65 20 12 13 24 5 17 -11z m807 -52 c95
-32 97 -35 52 -66 -109 -74 -202 -129 -231 -136 -18 -4 -33 -5 -33 -3 0 3 10
24 22 47 18 33 23 59 23 123 l0 80 52 -12 c28 -6 80 -21 115 -33z m-3645 13
c-3 -3 -12 -4 -19 -1 -8 3 -5 6 6 6 11 1 17 -2 13 -5z m2533 -8 c0 -2 -8 -10
-17 -17 -16 -13 -17 -12 -4 4 13 16 21 21 21 13z m-2925 -36 c-3 -5 -15 -10
-25 -10 -10 0 -22 5 -25 10 -4 6 7 10 25 10 18 0 29 -4 25 -10z m421 -15 c99
-17 143 -34 208 -84 28 -21 68 -48 89 -60 20 -13 37 -27 37 -32 0 -6 -17 -17
-37 -26 -31 -13 -63 -15 -165 -10 -116 5 -133 3 -197 -18 -71 -24 -171 -43
-171 -32 0 3 12 19 26 34 49 53 68 102 68 181 l1 73 30 -6 c17 -4 67 -13 111
-20z m-2588 -70 c-3 -3 -9 2 -12 12 -6 14 -5 15 5 6 7 -7 10 -15 7 -18z m1797
-22 c8 -47 36 -100 68 -135 15 -16 23 -28 19 -28 -8 0 -195 58 -250 78 -38 13
-40 16 -25 27 24 17 166 94 174 94 4 1 10 -16 14 -36z m6045 3 c0 -2 7 -40 15
-83 8 -43 15 -79 15 -80 0 -2 -8 -3 -18 -3 -30 0 -91 -49 -112 -90 -15 -30
-20 -59 -20 -124 0 -83 0 -84 -41 -132 -22 -27 -51 -69 -63 -94 -66 -128 -119
-347 -115 -478 1 -42 -2 -116 -6 -163 -10 -113 7 -255 44 -361 23 -67 28 -95
24 -148 -5 -85 20 -132 95 -176 64 -39 109 -48 162 -34 101 27 180 168 151
269 -10 31 -7 39 39 105 62 88 79 161 55 241 -17 55 -44 108 -45 86 0 -8 -2
-12 -4 -10 -3 2 4 49 16 104 11 55 28 141 38 190 13 66 18 130 17 242 -1 83 1
151 5 150 4 -1 13 7 21 18 14 18 14 16 6 -25 -6 -25 -12 -315 -14 -645 -3
-330 -8 -634 -12 -675 -3 -41 -5 -81 -4 -89 1 -8 -2 -17 -7 -20 -5 -3 -12 -25
-14 -48 -3 -23 -12 -53 -20 -65 -8 -13 -22 -43 -31 -68 -9 -25 -33 -62 -52
-82 -38 -40 -125 -78 -180 -78 -19 0 -37 -4 -40 -10 -3 -5 -16 -9 -28 -9 -43
2 -142 -14 -160 -27 -16 -10 -28 -8 -75 14 -47 22 -72 26 -142 26 -74 0 -93
-4 -152 -31 -37 -17 -87 -50 -111 -72 -24 -23 -47 -41 -49 -41 -3 0 19 93 48
208 333 1291 304 1163 304 1322 l0 139 64 99 c36 55 77 128 91 163 15 35 38
86 52 113 13 26 30 79 38 118 7 38 20 77 29 87 8 9 22 37 31 61 21 59 60 124
102 171 31 34 53 49 53 35z m-8043 -198 c-3 -8 -6 -5 -6 6 -1 11 2 17 5 13 3
-3 4 -12 1 -19z m50 0 c-3 -8 -6 -5 -6 6 -1 11 2 17 5 13 3 -3 4 -12 1 -19z
m-10 -240 c-3 -8 -6 -5 -6 6 -1 11 2 17 5 13 3 -3 4 -12 1 -19z m8240 -70 c-3
-8 -6 -5 -6 6 -1 11 2 17 5 13 3 -3 4 -12 1 -19z m60 -30 c-3 -7 -5 -2 -5 12
0 14 2 19 5 13 2 -7 2 -19 0 -25z m-100 -60 c-3 -8 -6 -5 -6 6 -1 11 2 17 5
13 3 -3 4 -12 1 -19z m-614 -69 c-10 -17 -24 -43 -31 -56 -8 -13 -15 -23 -17
-21 -1 2 -10 17 -19 35 l-16 32 42 20 c58 26 61 26 41 -10z m624 -96 c-2 -16
-4 -3 -4 27 0 30 2 43 4 28 2 -16 2 -40 0 -55z m-8370 -145 c-3 -8 -6 -5 -6 6
-1 11 2 17 5 13 3 -3 4 -12 1 -19z m8340 -100 c-3 -8 -6 -5 -6 6 -1 11 2 17 5
13 3 -3 4 -12 1 -19z m-3420 -10 c-3 -8 -6 -5 -6 6 -1 11 2 17 5 13 3 -3 4
-12 1 -19z m3403 -55 c-11 -17 -11 -17 -6 0 3 10 7 26 7 35 1 15 2 15 6 0 2
-10 -1 -25 -7 -35z m-8373 15 c-3 -8 -6 -5 -6 6 -1 11 2 17 5 13 3 -3 4 -12 1
-19z m8364 -74 c-9 -28 -9 -29 -10 -3 -1 14 2 29 6 32 11 12 13 2 4 -29z
m-7924 -86 c-2 -13 -4 -5 -4 17 -1 22 1 32 4 23 2 -10 2 -28 0 -40z m7678 -8
c-10 -11 -21 -18 -23 -15 -3 3 3 12 14 20 27 20 30 18 9 -5z m65 -13 c0 -2
-12 -14 -27 -28 l-28 -24 24 28 c23 25 31 32 31 24z m-2793 -949 c-3 -8 -6 -5
-6 6 -1 11 2 17 5 13 3 -3 4 -12 1 -19z m-177 -352 c0 -2 -8 -10 -17 -17 -16
-13 -17 -12 -4 4 13 16 21 21 21 13z m-4249 -123 c13 -16 12 -17 -3 -4 -10 7
-18 15 -18 17 0 8 8 3 21 -13z m136 -375 c-3 -8 -6 -5 -6 6 -1 11 2 17 5 13 3
-3 4 -12 1 -19z m10 -50 c-3 -7 -5 -2 -5 12 0 14 2 19 5 13 2 -7 2 -19 0 -25z
m110 -430 c-3 -8 -6 -5 -6 6 -1 11 2 17 5 13 3 -3 4 -12 1 -19z m5833 -562 c0
-2 -8 -10 -17 -17 -16 -13 -17 -12 -4 4 13 16 21 21 21 13z m-5129 -803 c13
-16 12 -17 -3 -4 -10 7 -18 15 -18 17 0 8 8 3 21 -13z"/>
<path d="M7640 11130 c-41 -4 -131 -22 -200 -39 -111 -27 -516 -95 -720 -121
-135 -17 -353 -30 -502 -30 l-146 0 -26 -31 c-14 -17 -26 -39 -26 -50 0 -18
-8 -19 -136 -19 -87 0 -133 -4 -129 -10 4 -6 60 -10 137 -10 126 0 131 -1 162
-26 l31 -27 270 6 c149 4 317 13 375 21 286 41 636 100 746 127 70 17 176 34
246 39 121 9 128 9 388 -35 234 -39 481 -78 592 -92 32 -4 42 0 69 26 26 26
30 37 25 63 -5 28 -4 30 17 24 12 -3 81 -15 152 -26 72 -11 160 -27 196 -35
76 -17 89 -18 89 -7 0 8 -124 36 -240 52 -119 18 -223 40 -250 54 -37 20 -147
42 -320 65 -86 12 -230 35 -320 51 -179 34 -351 44 -480 30z"/>
<path d="M6494 10430 c-30 -12 -54 -49 -54 -81 0 -25 -4 -28 -62 -39 -35 -6
-105 -14 -155 -17 -51 -3 -93 -10 -93 -14 0 -14 116 -10 222 7 94 16 99 16
119 -2 45 -40 236 -47 1524 -50 660 -2 1225 -5 1255 -8 132 -12 222 -28 252
-45 18 -10 46 -22 61 -25 43 -10 29 16 -14 27 -19 5 -40 14 -47 20 -15 12
-233 46 -299 47 -48 0 -47 -1 -33 36 8 20 8 36 -1 56 -25 61 27 58 -1087 58
-995 0 -1111 3 -1507 34 -33 3 -70 1 -81 -4z"/>
<path d="M7955 10064 c-258 -65 -459 -108 -620 -133 -252 -40 -273 -46 -287
-77 -11 -24 -12 -24 -164 -24 -93 0 -182 6 -230 15 -43 8 -80 13 -82 10 -22
-22 135 -45 301 -45 l153 0 11 -29 c6 -16 23 -37 38 -47 26 -17 33 -17 262 20
130 21 328 60 442 87 268 64 274 66 299 87 13 12 65 28 132 41 131 26 250 61
250 73 0 12 -14 10 -57 -7 -38 -14 -262 -65 -289 -65 -8 0 -14 10 -14 24 0 40
-31 68 -80 71 -25 2 -54 1 -65 -1z"/>
<path d="M6644 6265 c-23 -15 -198 -406 -209 -465 -16 -90 71 -150 136 -94 14
13 17 7 28 -53 15 -86 13 -78 41 -149 24 -62 50 -88 144 -142 23 -13 43 -28
46 -33 7 -11 79 -23 140 -24 38 0 45 3 45 20 0 23 -33 41 -86 48 -19 2 -46 10
-60 17 -13 8 -26 13 -29 13 -9 -1 -35 11 -47 21 -6 6 -28 22 -47 36 -44 31
-72 85 -91 176 -19 88 -20 228 -2 242 7 6 19 27 27 47 7 19 17 35 21 35 4 0
10 11 13 24 3 14 12 31 19 38 17 19 37 56 37 68 0 6 9 23 20 38 29 39 33 70 9
77 -10 4 -19 11 -19 16 0 6 -11 21 -25 34 -28 29 -79 33 -111 10z m-57 -502
c-3 -10 -5 -2 -5 17 0 19 2 27 5 18 2 -10 2 -26 0 -35z"/>
<path d="M8230 5523 c-8 -3 -23 -14 -34 -25 -11 -10 -30 -18 -43 -18 -30 0
-48 -33 -31 -60 10 -16 23 -20 65 -20 29 0 53 4 53 10 0 5 17 18 39 29 32 17
51 38 51 56 0 2 -7 11 -16 19 -15 16 -55 20 -84 9z"/>
<path d="M7081 5498 c-40 -11 -61 -30 -61 -55 0 -43 36 -53 105 -29 25 9 44
11 50 5 15 -14 41 -11 57 9 14 17 17 57 4 69 -10 10 -117 10 -155 1z"/>
<path d="M7528 5329 c-27 -15 -23 -65 6 -84 18 -12 38 -14 90 -9 l66 7 -16
-32 c-19 -38 -11 -85 19 -106 15 -11 50 -15 122 -16 73 0 92 -3 71 -9 -79 -24
-322 -7 -501 35 -33 8 -103 15 -155 17 -110 2 -129 -4 -253 -84 -75 -49 -282
-156 -401 -208 -27 -12 -97 -38 -155 -57 -150 -50 -254 -110 -364 -210 -32
-29 -71 -60 -86 -67 -96 -50 -206 -264 -242 -470 -12 -72 -7 -283 9 -341 7
-27 13 -30 53 -33 64 -4 110 19 187 97 l69 69 84 7 c63 6 87 12 96 25 7 10 22
20 33 23 21 5 21 5 1 -26 -34 -56 -44 -112 -31 -174 10 -47 21 -65 64 -109 63
-62 67 -64 386 -99 421 -47 518 -63 590 -98 l65 -32 270 3 c333 3 479 14 710
53 99 17 205 34 235 39 180 28 292 51 317 63 110 58 156 203 98 312 -22 41
-23 46 -8 40 10 -4 50 -18 88 -32 71 -25 128 -48 155 -63 9 -4 30 -11 48 -14
17 -4 34 -11 37 -16 10 -17 88 -51 129 -56 34 -5 53 -1 95 21 29 16 55 34 58
42 3 7 -2 53 -10 101 -15 81 -29 197 -29 232 1 8 -5 35 -11 59 -10 36 -34 68
-127 164 -63 66 -165 162 -227 214 -61 51 -113 97 -115 101 -3 8 -65 52 -73
52 -2 0 -50 33 -104 73 -177 128 -214 152 -311 196 -171 77 -244 116 -264 139
-12 13 -31 22 -49 22 -24 0 -28 3 -21 18 17 39 16 88 -3 111 -21 25 -104 40
-238 41 -90 0 -115 7 -115 31 0 24 -39 41 -59 25 -18 -14 -174 -14 -192 0 -21
18 -72 25 -91 13z m312 -1111 c56 -10 100 -23 135 -39 11 -5 40 -15 65 -23
l45 -14 -50 4 c-279 22 -310 26 -348 46 -38 19 -53 20 -221 15 -100 -3 -194
-9 -211 -12 -25 -5 -27 -4 -12 5 9 6 75 16 145 21 70 5 134 11 142 14 25 6
251 -5 310 -17z m-890 -84 c-41 -8 -131 -26 -201 -39 -131 -26 -217 -33 -189
-15 8 5 24 10 35 10 19 0 113 33 145 51 8 4 76 8 150 7 l135 0 -75 -14z m1705
-173 c43 -11 83 -17 89 -14 6 4 7 2 3 -3 -8 -9 -120 -32 -162 -33 -18 -1 -20
4 -17 34 2 19 5 35 7 35 1 0 38 -9 80 -19z m-1285 -73 c0 -5 -9 -4 -20 2 -11
6 -20 12 -20 14 0 2 9 2 20 -1 11 -3 20 -9 20 -15z m897 16 c-3 -3 -12 -4 -19
-1 -8 3 -5 6 6 6 11 1 17 -2 13 -5z m71 -1 c-10 -2 -26 -2 -35 0 -10 3 -2 5
17 5 19 0 27 -2 18 -5z m-1241 -9 c-3 -3 -12 -4 -19 -1 -8 3 -5 6 6 6 11 1 17
-2 13 -5z m1620 0 c-3 -3 -12 -4 -19 -1 -8 3 -5 6 6 6 11 1 17 -2 13 -5z m-40
-10 c-3 -3 -12 -4 -19 -1 -8 3 -5 6 6 6 11 1 17 -2 13 -5z m-2124 -11 c-13 -2
-33 -2 -45 0 -13 2 -3 4 22 4 25 0 35 -2 23 -4z m84 -9 c-3 -3 -12 -4 -19 -1
-8 3 -5 6 6 6 11 1 17 -2 13 -5z m180 0 c-3 -3 -12 -4 -19 -1 -8 3 -5 6 6 6
11 1 17 -2 13 -5z m1226 -25 c20 1 37 -3 37 -9 0 -6 -38 -10 -101 -10 -92 0
-100 2 -88 16 10 13 23 15 64 9 27 -4 67 -7 88 -6z m80 -6 c-7 -2 -19 -2 -25
0 -7 3 -2 5 12 5 14 0 19 -2 13 -5z m95 0 c-10 -2 -28 -2 -40 0 -13 2 -5 4 17
4 22 1 32 -1 23 -4z m-1131 -9 c-3 -3 -12 -4 -19 -1 -8 3 -5 6 6 6 11 1 17 -2
13 -5z m-194 -21 c-7 -2 -19 -2 -25 0 -7 3 -2 5 12 5 14 0 19 -2 13 -5z"/>
<path d="M7040 5299 c-46 -16 -92 -29 -103 -29 -32 0 -74 -28 -87 -60 -23 -55
26 -120 90 -120 11 0 75 18 143 40 133 44 167 68 167 121 0 18 -9 39 -25 54
-32 33 -77 32 -185 -6z"/>
<path d="M7046 3375 c-9 -9 -16 -22 -16 -28 1 -17 25 -47 39 -47 6 0 11 -3 11
-8 0 -15 57 -30 130 -36 192 -15 413 -17 610 -6 118 7 258 14 310 16 52 2 109
6 126 9 36 6 61 44 47 69 -8 14 -12 14 -48 -3 -34 -16 -82 -20 -335 -30 -328
-12 -588 -9 -641 7 -53 16 -182 58 -200 66 -10 4 -23 1 -33 -9z"/>
</g>
</svg>
